<svg xmlns="http://www.w3.org/2000/svg" viewBox="0 0 24 24" fill="none" stroke="#C5A059" stroke-width="2">
  <path d="M4.5 10.5C4.5 7.46243 6.96243 5 10 5C13.0376 5 15.5 7.46243 15.5 10.5C15.5 12.3551 14.5824 14.0042 13.1818 15.0064C12.2858 15.6475 11.2057 16 10 16C6.96243 16 4.5 13.5376 4.5 10.5Z" />
  <path d="M19.5 13.5C19.5 11.3934 18.2325 9.58242 16.4252 8.79093C15.8646 9.30939 15.5 10.0381 15.5 10.8462C15.5 12.3001 16.4172 13.5413 17.7029 14.0322C18.7758 14.4428 19.5 15.4851 19.5 16.7143C19.5 18.529 18.029 20 16.2143 20C14.7896 20 13.5758 19.0945 13.1311 17.8227C12.7876 17.9372 12.4173 18 12.0303 18C10.7483 18 9.61057 17.3197 8.98379 16.3056" stroke="#06B6D4" />
</svg>
