<svg xmlns="http://www.w3.org/2000/svg" viewBox="0 0 24 24" fill="none" stroke-linecap="round" stroke-linejoin="round">
  <!-- Roots -->
  <path d="M9 21c-1.5 0.5-2.5 1-3.5 1.5" stroke="#0ea5e9" stroke-width="1.5" />
  <path d="M15 21c1.5 0.5 2.5 1 3.5 1.5" stroke="#c5a059" stroke-width="1.5" />
  
  <!-- DNA Helix strands forming the trunk and branching canopy -->
  <!-- Teal Strand -->
  <path d="M9 21C9 18.5 15 17.5 15 15C15 12.5 9 11.5 9 9C9 5.5 13.5 3.5 17 3.5" stroke="#0ea5e9" stroke-width="2" />
  
  <!-- Gold Strand -->
  <path d="M15 21C15 18.5 9 17.5 9 15C9 12.5 15 11.5 15 9C15 5.5 10.5 3.5 7 3.5" stroke="#c5a059" stroke-width="2" />
  
  <!-- Base Pairs -->
  <line x1="9" y1="15" x2="15" y2="15" stroke="#64748b" stroke-width="1.5" opacity="0.4" />
  <line x1="9" y1="9" x2="15" y2="9" stroke="#64748b" stroke-width="1.5" opacity="0.4" />
  
  <!-- Central Branch -->
  <line x1="12" y1="6.25" x2="12" y2="3" stroke="#64748b" stroke-width="1.5" opacity="0.6" />
  
  <!-- Leaf Nodes -->
  <circle cx="12" cy="2" r="1.5" fill="#c5a059" stroke="none" />
  <circle cx="7" cy="3.5" r="1.2" fill="#c5a059" stroke="none" />
  <circle cx="17" cy="3.5" r="1.2" fill="#0ea5e9" stroke="none" />
  <circle cx="9" cy="9" r="0.8" fill="#0ea5e9" stroke="none" />
  <circle cx="15" cy="9" r="0.8" fill="#c5a059" stroke="none" />
</svg>
